# xmcd
# 
# Track frame offsets:
#     150
#     19350
#     34515
#     54737
#     68522
#     83395
#     96233
#     112483
#     126738
#     144860
#     159553
#     172188
#     190400
#     202835
# 
# Disc length: 2914
# 
# Revision: 9
# Processed by: cddbd v1.5.2PL0 Copyright (c) Steve Scherf et al.
# Submitted via: BonkEnc v1.0.6
# 
DISCID=c60b600e
DTITLE=Amado Batista - Amor
DYEAR=2002
DGENRE=Sertanejo
TTITLE0=Secretaria - Assedio Sexual
TTITLE1=Deusa Nua
TTITLE2=Meu Doce Amor
TTITLE3=Estou Sonhando
TTITLE4=Nao Aguento Mais Esta Novela
TTITLE5=Sem Você
TTITLE6=Pensando Em Nós
TTITLE7=Que Bom Seria
TTITLE8=Seus Olhos
TTITLE9=Tenha Certeza
TTITLE10=Relembrando Nosso Amor
TTITLE11=Amand@.Com
TTITLE12=Olhos Verdes
TTITLE13=Desencontro Do Amor
EXTD=Amado Batista - Amor
EXTT0=
EXTT1=
EXTT2=
EXTT3=
EXTT4=
EXTT5=
EXTT6=
EXTT7=
EXTT8=
EXTT9=
EXTT10=
EXTT11=
EXTT12=
EXTT13=
PLAYORDER=
